# xmcd CD database file
#
# Track frame offsets:
#	150
#	33004
#	56152
#	78715
#	111017
#	146691
#	173959
#	200207
#	228317
#
# Disc length: 3346 seconds
#
# Revision: 0
# Processed by: cddbd v1.5.2PL0 Copyright (c) Steve Scherf et al.
# Submitted via: CDex 1.51
#
DISCID=7d0d1009
DTITLE=Tineke Postma - The Traveller
DYEAR=2009
DGENRE=Jazz
TTITLE0=Song For F
TTITLE1=The Eye Of The Mind
TTITLE2=Crazy Stuff
TTITLE3=The Line
TTITLE4=Adagio 13 - Heitor Villa Lobos
TTITLE5=Cabbonal
TTITLE6=Motivation
TTITLE7=Searching And Finding
TTITLE8=YWC
EXTD=YEAR: 2009
EXTT0=
EXTT1=
EXTT2=
EXTT3=
EXTT4=
EXTT5=
EXTT6=
EXTT7=
EXTT8=
PLAYORDER=
